<?xml version="1.0" encoding="UTF-8"?>
<svg width="16px" height="30px" viewBox="0 0 16 30" version="1.1" xmlns="http://www.w3.org/2000/svg" xmlns:xlink="http://www.w3.org/1999/xlink">
    <!-- Generator: Sketch 43.1 (39012) - http://www.bohemiancoding.com/sketch -->
    <title>pin</title>
    <desc>Created with Sketch.</desc>
    <defs></defs>
    <g id="Detail" stroke="none" stroke-width="1" fill="none" fill-rule="evenodd">
        <g id="Desktop-HD" transform="translate(-200.000000, -293.000000)" fill-rule="nonzero" fill="#FFFFFF">
            <g id="Info" transform="translate(163.000000, 100.000000)">
                <g id="Info-/-Provider" transform="translate(20.000000, 20.000000)">
                    <g id="Adres" transform="translate(1.000000, 163.000000)">
                        <g id="pin" transform="translate(16.000000, 10.000000)">
                            <path d="M15.2669633,7.42599787 C15.2669633,3.33130264 11.8987208,0 7.75862069,0 C3.61852058,0 0.250278087,3.33130264 0.250278087,7.42599787 C0.250278087,11.3538557 3.35122358,14.5703029 7.25806452,14.8267473 L7.25806452,28.7138584 C7.25806452,28.9876302 7.48231368,29.2089249 7.75862069,29.2089249 C8.0349277,29.2089249 8.25917686,28.9876302 8.25917686,28.7138584 L8.25917686,14.8267473 C12.1660178,14.5703029 15.2669633,11.3538557 15.2669633,7.42599787 Z M7.75862069,13.8618627 C4.17063404,13.8618627 1.25139043,10.9746347 1.25139043,7.42599787 C1.25139043,3.87736102 4.17063404,0.990133049 7.75862069,0.990133049 C11.3466073,0.990133049 14.2658509,3.87736102 14.2658509,7.42599787 C14.2658509,10.9746347 11.3466073,13.8618627 7.75862069,13.8618627 Z" id="Shape"></path>
                            <path d="M5.25583982,3.46546567 C4.1516129,3.46546567 3.25361513,4.35361502 3.25361513,5.44573177 C3.25361513,6.53784852 4.1516129,7.42599787 5.25583982,7.42599787 C6.36006674,7.42599787 7.25806452,6.53784852 7.25806452,5.44573177 C7.25806452,4.35361502 6.36006674,3.46546567 5.25583982,3.46546567 Z M5.25583982,6.43586482 C4.70372636,6.43586482 4.25472747,5.99179015 4.25472747,5.44573177 C4.25472747,4.89967339 4.70372636,4.45559872 5.25583982,4.45559872 C5.80795328,4.45559872 6.25695217,4.89967339 6.25695217,5.44573177 C6.25695217,5.99179015 5.80795328,6.43586482 5.25583982,6.43586482 Z" id="Shape"></path>
                        </g>
                    </g>
                </g>
            </g>
        </g>
    </g>
</svg>