<?xml version="1.0" encoding="utf-8"?>
<!-- Generator: Adobe Illustrator 21.0.2, SVG Export Plug-In . SVG Version: 6.00 Build 0)  -->
<svg version="1.1" id="Layer_1" xmlns="http://www.w3.org/2000/svg" xmlns:xlink="http://www.w3.org/1999/xlink" x="0px" y="0px"
	 viewBox="0 0 16 30" style="enable-background:new 0 0 16 30;" xml:space="preserve">
<title>pin</title>
<desc>Created with Sketch.</desc>
<g id="Detail">
	<g id="Desktop-HD" transform="translate(-200.000000, -293.000000)">
		<g id="Info" transform="translate(163.000000, 100.000000)">
			<g id="Info-_x2F_-Provider" transform="translate(20.000000, 20.000000)">
				<g id="Adres" transform="translate(1.000000, 163.000000)">
					<g id="pin" transform="translate(16.000000, 10.000000)">
						<path id="Shape" d="M15.3,7.4c0-4.1-3.4-7.4-7.5-7.4S0.3,3.3,0.3,7.4c0,3.9,3.1,7.1,7,7.4v13.9c0,0.3,0.2,0.5,0.5,0.5
							c0.3,0,0.5-0.2,0.5-0.5V14.8C12.2,14.6,15.3,11.4,15.3,7.4z M7.8,13.9c-3.6,0-6.5-2.9-6.5-6.4S4.2,1,7.8,1s6.5,2.9,6.5,6.4
							S11.3,13.9,7.8,13.9z"/>
						<path id="Shape_1_" d="M5.3,3.5c-1.1,0-2,0.9-2,2s0.9,2,2,2s2-0.9,2-2S6.4,3.5,5.3,3.5z M5.3,6.4c-0.6,0-1-0.4-1-1s0.4-1,1-1
							s1,0.4,1,1S5.8,6.4,5.3,6.4z"/>
					</g>
				</g>
			</g>
		</g>
	</g>
</g>
</svg>
