<?xml version="1.0" encoding="utf-8"?>
<!-- Generator: Adobe Illustrator 21.0.2, SVG Export Plug-In . SVG Version: 6.00 Build 0)  -->
<svg version="1.1" id="Capa_1" xmlns="http://www.w3.org/2000/svg" xmlns:xlink="http://www.w3.org/1999/xlink" x="0px" y="0px"
	 viewBox="0 0 60 60" style="enable-background:new 0 0 60 60;" xml:space="preserve">
<style type="text/css">
	.st0{stroke:#000000;stroke-miterlimit:10;}
</style>
<g>
	<path class="st0" d="M30,26.1c3.7,0,6.8-3,6.8-6.8s-3-6.8-6.8-6.8s-6.8,3-6.8,6.8S26.3,26.1,30,26.1z M30,14.5
		c2.7,0,4.9,2.2,4.9,4.9s-2.2,4.9-4.9,4.9s-4.9-2.2-4.9-4.9S27.3,14.5,30,14.5z"/>
	<path class="st0" d="M29.8,54l14.9-21.5c5.6-7.4,4.8-19.7-1.7-26.2c-3.5-3.5-8.2-5.5-13.2-5.5s-9.6,1.9-13.2,5.5
		c-6.5,6.5-7.3,18.7-1.8,26.2L29.8,54z M18,7.7c3.2-3.1,7.3-4.9,11.8-4.9s8.6,1.7,11.8,4.9c5.9,5.9,6.6,16.9,1.5,23.7L29.8,50.6
		L16.5,31.4C11.4,24.6,12.2,13.6,18,7.7z"/>
	<path class="st0" d="M41.8,42.6c-0.5-0.1-1,0.3-1.1,0.9c-0.1,0.5,0.3,1,0.9,1.1c10.2,1.2,15.6,4.4,15.6,6.3
		c0,2.6-10.3,6.3-27.2,6.3S2.8,53.5,2.8,50.9c0-1.9,5.4-5.1,15.6-6.3c0.5-0.1,0.9-0.5,0.9-1.1c-0.1-0.5-0.5-0.9-1.1-0.9
		C8,43.8,0.9,47.2,0.9,50.9c0,4.1,10,8.3,29.1,8.3s29.1-4.2,29.1-8.3C59.1,47.2,52,43.8,41.8,42.6z"/>
</g>
</svg>
