<?xml version="1.0" encoding="utf-8"?>
<!-- Generator: Adobe Illustrator 21.0.2, SVG Export Plug-In . SVG Version: 6.00 Build 0)  -->
<svg version="1.1" id="Capa_1" xmlns="http://www.w3.org/2000/svg" xmlns:xlink="http://www.w3.org/1999/xlink" x="0px" y="0px"
	 viewBox="0 0 60 60" style="enable-background:new 0 0 60 60;" xml:space="preserve">
<path d="M11.7,16.5l-0.8-5h-3c-0.4-1.7-2-3-3.9-3c-2.2,0-4,1.8-4,4s1.8,4,4,4c1.9,0,3.4-1.3,3.9-3h1.3l0.5,3h0l0.2,1.2v0l0,0
	L12.4,31l1,5.5h0l1.3,7c-2.5,0.2-4.5,2.1-4.8,4.5c-0.1,1.4,0.3,2.8,1.3,3.9c0.9,1,2.3,1.7,3.7,1.7h2c0,3.3,2.7,6,6,6s6-2.7,6-6h11
	c0,3.3,2.7,6,6,6s6-2.7,6-6h4c0.6,0,1-0.4,1-1s-0.4-1-1-1h-4.3c-0.8-2.3-3-4-5.7-4s-4.8,1.7-5.7,4H28.6c-0.8-2.3-3-4-5.6-4
	s-4.8,1.7-5.6,4H15c-0.8,0-1.7-0.4-2.2-1c-0.6-0.6-0.8-1.5-0.8-2.3c0.2-1.5,1.5-2.7,3.2-2.7H16c0,0,0,0,0.1,0l6.1,0l10.8,0v0l7.1,0
	l10.9,0v0l4,0c2.8,0,5-2.2,5-5v-24L11.7,16.5z M4,14.5c-1.1,0-2-0.9-2-2s0.9-2,2-2s2,0.9,2,2S5.1,14.5,4,14.5z M46,49.5
	c2.2,0,4,1.8,4,4s-1.8,4-4,4s-4-1.8-4-4S43.8,49.5,46,49.5z M23,49.5c2.2,0,4,1.8,4,4s-1.8,4-4,4s-4-1.8-4-4S20.8,49.5,23,49.5z
	 M58,25.5h-7v-7l7,0V25.5z M42,43.5v-7h7v7L42,43.5z M42,34.5v-7h7v7H42z M24,43.5v-7h7v7L24,43.5z M24,34.5v-7h7v7H24z M13.8,27.5
	H22v7h-6.9L13.8,27.5z M49,25.5h-7v-7h7V25.5z M40,25.5h-7v-7l7,0V25.5z M31,18.5v7h-7v-7C24,18.5,31,18.5,31,18.5z M33,27.5h7v7h-7
	V27.5z M51,27.5h7v7h-7V27.5z M22,18.5v7h-8.6l-1.3-7L22,18.5z M15.5,36.5H22v7l-5.2,0L15.5,36.5z M33,36.5h7v7l-7,0V36.5z M55,43.5
	l-4,0v-7h7v4C58,42.2,56.7,43.5,55,43.5z"/>
</svg>
