<?xml version="1.0" encoding="utf-8"?>
<!-- Generator: Adobe Illustrator 21.0.2, SVG Export Plug-In . SVG Version: 6.00 Build 0)  -->
<svg version="1.1" id="Capa_1" xmlns="http://www.w3.org/2000/svg" xmlns:xlink="http://www.w3.org/1999/xlink" x="0px" y="0px"
	 viewBox="0 0 60 60" style="enable-background:new 0 0 60 60;" xml:space="preserve">
<style type="text/css">
	.st0{fill:#FFFFFF;}
</style>
<path class="st0" d="M11.7,16.5l-0.8-5h-3c-0.4-1.7-2-3-3.9-3c-2.2,0-4,1.8-4,4s1.8,4,4,4c1.9,0,3.4-1.3,3.9-3h1.3l0.5,3l0,0
	l0.2,1.2l0,0l0,0L12.4,31l1,5.5l0,0l1.3,7c-2.5,0.2-4.5,2.1-4.8,4.5c-0.1,1.4,0.3,2.8,1.3,3.9c0.9,1,2.3,1.7,3.7,1.7h2
	c0,3.3,2.7,6,6,6s6-2.7,6-6h11c0,3.3,2.7,6,6,6s6-2.7,6-6h4c0.6,0,1-0.4,1-1s-0.4-1-1-1h-4.3c-0.8-2.3-3-4-5.7-4s-4.8,1.7-5.7,4
	H28.6c-0.8-2.3-3-4-5.6-4s-4.8,1.7-5.6,4H15c-0.8,0-1.7-0.4-2.2-1C12.2,50,12,49.1,12,48.3c0.2-1.5,1.5-2.7,3.2-2.7H16
	c0,0,0,0,0.1,0h6.1H33l0,0h7.1H51l0,0h4c2.8,0,5-2.2,5-5v-24L11.7,16.5z M4,14.5c-1.1,0-2-0.9-2-2s0.9-2,2-2s2,0.9,2,2
	S5.1,14.5,4,14.5z M46,49.5c2.2,0,4,1.8,4,4s-1.8,4-4,4s-4-1.8-4-4S43.8,49.5,46,49.5z M23,49.5c2.2,0,4,1.8,4,4s-1.8,4-4,4
	s-4-1.8-4-4S20.8,49.5,23,49.5z M58,25.5h-7v-7h7V25.5z M42,43.5v-7h7v7H42z M42,34.5v-7h7v7H42z M24,43.5v-7h7v7H24z M24,34.5v-7h7
	v7H24z M13.8,27.5H22v7h-6.9L13.8,27.5z M49,25.5h-7v-7h7V25.5z M40,25.5h-7v-7h7V25.5z M31,18.5v7h-7v-7H31z M33,27.5h7v7h-7V27.5z
	 M51,27.5h7v7h-7V27.5z M22,18.5v7h-8.6l-1.3-7H22z M15.5,36.5H22v7h-5.2L15.5,36.5z M33,36.5h7v7h-7V36.5z M55,43.5h-4v-7h7v4
	C58,42.2,56.7,43.5,55,43.5z"/>
</svg>
