<?xml version="1.0" encoding="utf-8"?>
<!-- Generator: Adobe Illustrator 21.0.2, SVG Export Plug-In . SVG Version: 6.00 Build 0)  -->
<svg version="1.1" id="Capa_1" xmlns="http://www.w3.org/2000/svg" xmlns:xlink="http://www.w3.org/1999/xlink" x="0px" y="0px"
	 viewBox="0 0 60 60" style="enable-background:new 0 0 60 60;" xml:space="preserve">
<style type="text/css">
	.st0{fill:#FFFFFF;}
</style>
<g>
	<path class="st0" d="M57,25H37.1l19-19c1.2-1.2,1.2-3.1,0-4.2c-1.2-1.2-3.1-1.2-4.2,0L31.4,22.2C31,22.1,30.5,22,30,22
		s-1,0.1-1.4,0.2L8.2,1.8C7,0.7,5.1,0.7,4,1.8C3.4,2.4,3.1,3.2,3.1,4c0,0.8,0.3,1.6,0.9,2.1l19,19H3c-1.7,0-3,1.3-3,3s1.3,3,3,3h0.3
		l9,25.2c0.6,1.7,2.2,2.8,3.9,2.8h27.5c1.8,0,3.3-1.1,3.9-2.8l9-25.2H57c1.7,0,3-1.3,3-3S58.7,25,57,25z M53.2,3.2
		c0.4-0.4,1-0.4,1.4,0c0.4,0.4,0.4,1,0,1.4L34.8,24.5c-0.4-0.5-0.9-1-1.4-1.4L53.2,3.2z M31.3,24.3C31.3,24.3,31.3,24.3,31.3,24.3
		c1,0.4,1.9,1.1,2.3,2.1l0.1,0.2c0,0,0,0,0,0c0.1,0.2,0.1,0.3,0.2,0.5c0,0.1,0,0.1,0,0.2C34,27.6,34,27.8,34,28c0,0.2,0,0.5-0.1,0.7
		c0,0,0,0.1,0,0.1c0,0.2-0.1,0.4-0.2,0.6l-0.1,0.2c-0.1,0.2-0.2,0.3-0.3,0.5c0,0.1-0.1,0.1-0.2,0.2c-0.1,0.1-0.2,0.2-0.3,0.3
		c-0.1,0.1-0.1,0.1-0.2,0.2c-0.1,0.1-0.3,0.2-0.4,0.3c0,0-0.1,0.1-0.1,0.1c-0.2,0.1-0.4,0.2-0.6,0.3c-0.1,0-0.1,0.1-0.2,0.1
		c-0.2,0.1-0.3,0.1-0.5,0.2c-0.1,0-0.1,0-0.2,0C30.5,32,30.2,32,30,32s-0.5,0-0.7-0.1c-0.1,0-0.1,0-0.2,0c-0.2,0-0.3-0.1-0.5-0.2
		c-0.1,0-0.1,0-0.2-0.1c-0.2-0.1-0.4-0.2-0.6-0.3c0,0-0.1-0.1-0.1-0.1c-0.1-0.1-0.3-0.2-0.4-0.3c-0.1-0.1-0.1-0.1-0.2-0.2
		c-0.1-0.1-0.2-0.2-0.3-0.3c-0.1-0.1-0.1-0.1-0.2-0.2c-0.1-0.2-0.2-0.4-0.3-0.6C26.1,29.1,26,28.6,26,28s0.1-1.1,0.3-1.6
		c0.4-1,1.3-1.8,2.4-2.2c0,0,0,0,0,0c0.4-0.1,0.8-0.2,1.3-0.2S30.9,24.1,31.3,24.3z M5.1,4c0-0.3,0.1-0.5,0.3-0.7
		c0.4-0.4,1-0.4,1.4,0l19.8,19.8c-0.6,0.4-1,0.9-1.4,1.4L5.4,4.7C5.2,4.5,5.1,4.2,5.1,4z M2,28c0-0.6,0.4-1,1-1h21.1
		c0,0,0,0.1,0,0.1c0,0.3-0.1,0.6-0.1,0.9s0,0.6,0.1,0.9c0,0,0,0.1,0,0.1H3C2.4,29,2,28.6,2,28z M45.8,55.6c-0.3,0.9-1.1,1.4-2,1.4
		H16.2c-0.9,0-1.7-0.6-2-1.4L5.4,31h19.4c0,0,0,0,0,0.1c0.1,0.2,0.2,0.4,0.4,0.5c0,0,0.1,0.1,0.1,0.1c0.3,0.4,0.6,0.7,1,1
		c0,0,0.1,0.1,0.1,0.1c0.2,0.1,0.3,0.2,0.5,0.3c0,0,0.1,0.1,0.1,0.1c0.4,0.2,0.9,0.4,1.3,0.6c0.1,0,0.1,0,0.2,0
		c0.2,0,0.4,0.1,0.5,0.1c0.1,0,0.1,0,0.2,0c0.2,0,0.5,0,0.7,0s0.5,0,0.7,0c0.1,0,0.1,0,0.2,0c0.2,0,0.4-0.1,0.5-0.1
		c0.1,0,0.1,0,0.2,0c0.5-0.1,0.9-0.3,1.3-0.6c0,0,0.1-0.1,0.1-0.1c0.2-0.1,0.3-0.2,0.5-0.3c0,0,0.1-0.1,0.1-0.1c0.4-0.3,0.7-0.6,1-1
		c0,0,0.1-0.1,0.1-0.1c0.1-0.2,0.2-0.3,0.4-0.5c0,0,0,0,0-0.1h19.4L45.8,55.6z M57,29H35.9c0,0,0,0,0,0c0.1-0.3,0.1-0.6,0.1-1
		c0-0.3,0-0.7-0.1-1c0,0,0,0,0,0H57c0.6,0,1,0.4,1,1S57.6,29,57,29z"/>
	<path class="st0" d="M11,37c0,0.6,0.4,1,1,1h36c0.6,0,1-0.4,1-1s-0.4-1-1-1H12C11.4,36,11,36.5,11,37z"/>
	<path class="st0" d="M45,41H15c-0.6,0-1,0.4-1,1s0.4,1,1,1h30c0.6,0,1-0.4,1-1S45.6,41,45,41z"/>
	<path class="st0" d="M42,46H18c-0.6,0-1,0.4-1,1s0.4,1,1,1h24c0.6,0,1-0.4,1-1S42.6,46,42,46z"/>
	<path class="st0" d="M40,51H20c-0.6,0-1,0.4-1,1s0.4,1,1,1h20c0.6,0,1-0.4,1-1S40.6,51,40,51z"/>
</g>
</svg>
