<?xml version="1.0" encoding="UTF-8"?>
<svg width="30px" height="21px" viewBox="0 0 30 21" version="1.1" xmlns="http://www.w3.org/2000/svg" xmlns:xlink="http://www.w3.org/1999/xlink">
    <!-- Generator: Sketch 43.1 (39012) - http://www.bohemiancoding.com/sketch -->
    <title>tag</title>
    <desc>Created with Sketch.</desc>
    <defs></defs>
    <g id="Detail" stroke="none" stroke-width="1" fill="none" fill-rule="evenodd">
        <g id="Desktop-HD" transform="translate(-198.000000, -234.000000)" fill-rule="nonzero" fill="#FFFFFF">
            <g id="Info" transform="translate(163.000000, 100.000000)">
                <g id="Info-/-Provider" transform="translate(20.000000, 20.000000)">
                    <g id="Type" transform="translate(1.000000, 100.000000)">
                        <g id="tag" transform="translate(14.000000, 14.000000)">
                            <path d="M29.4557753,8.62611317 L24.3210003,1.62191106 C23.6445629,0.699496379 22.2732397,0.00461065574 21.135595,0.00461065574 L2.41057702,0.00461065574 C1.08229989,0.00461065574 0,1.08691054 0,2.41518768 L0,18.3606627 C0,19.6889399 1.08229989,20.7712397 2.41057702,20.7712397 L21.135595,20.7712397 C22.2793892,20.7712397 23.6507123,20.076354 24.3210003,19.1539393 L29.4557753,12.1497372 C30.1814082,11.1658282 30.1814082,9.61617159 29.4557753,8.62611317 Z M28.1151993,11.1781271 L22.9804243,18.1823292 C22.6237573,18.6742837 21.7382392,19.1170428 21.1294455,19.1170428 L2.41057702,19.1170428 C1.99856513,19.1170428 1.66034642,18.778824 1.66034642,18.3668122 L1.66034642,2.41518768 C1.66034642,2.00317579 1.99856513,1.66495707 2.41057702,1.66495707 L21.135595,1.66495707 C21.7443886,1.66495707 22.6237573,2.11386555 22.9865737,2.59967061 L28.1213488,9.60387272 C28.4165215,10.0158846 28.4165215,10.7661152 28.1151993,11.1781271 Z" id="Shape"></path>
                        </g>
                    </g>
                </g>
            </g>
        </g>
    </g>
</svg>