<?xml version="1.0" encoding="utf-8"?>
<!-- Generator: Adobe Illustrator 21.0.2, SVG Export Plug-In . SVG Version: 6.00 Build 0)  -->
<svg version="1.1" id="Layer_1" xmlns="http://www.w3.org/2000/svg" xmlns:xlink="http://www.w3.org/1999/xlink" x="0px" y="0px"
	 viewBox="0 0 30 21" style="enable-background:new 0 0 30 21;" xml:space="preserve">
<title>tag</title>
<desc>Created with Sketch.</desc>
<g id="Detail">
	<g id="Desktop-HD" transform="translate(-198.000000, -234.000000)">
		<g id="Info" transform="translate(163.000000, 100.000000)">
			<g id="Info-_x2F_-Provider" transform="translate(20.000000, 20.000000)">
				<g id="Type" transform="translate(1.000000, 100.000000)">
					<g id="tag" transform="translate(14.000000, 14.000000)">
						<path id="Shape" d="M29.5,8.6l-5.1-7c-0.7-0.9-2-1.6-3.2-1.6H2.4C1.1,0,0,1.1,0,2.4v15.9c0,1.3,1.1,2.4,2.4,2.4h18.7
							c1.1,0,2.5-0.7,3.2-1.6l5.1-7C30.2,11.2,30.2,9.6,29.5,8.6z M28.1,11.2l-5.1,7c-0.4,0.5-1.2,0.9-1.9,0.9H2.4
							c-0.4,0-0.8-0.3-0.8-0.8v-16C1.7,2,2,1.7,2.4,1.7h18.7c0.6,0,1.5,0.4,1.9,0.9l5.1,7C28.4,10,28.4,10.8,28.1,11.2z"/>
					</g>
				</g>
			</g>
		</g>
	</g>
</g>
</svg>
